<svg xmlns="http://www.w3.org/2000/svg" viewBox="0 0 64 64">
  <defs>
    <linearGradient id="bg" x1="0" y1="0" x2="1" y2="1">
      <stop offset="0" stop-color="#7c3aed"/>
      <stop offset="1" stop-color="#2563eb"/>
    </linearGradient>
  </defs>

  <rect width="64" height="64" rx="15" fill="url(#bg)"/>

  <!-- Blog page -->
  <rect
    x="14"
    y="12"
    width="34"
    height="40"
    rx="5"
    fill="#ffffff"
  />

  <!-- Text lines -->
  <path
    d="M21 23h18M21 29h13M21 35h9"
    stroke="#c4b5fd"
    stroke-width="3"
    stroke-linecap="round"
  />

  <!-- Writing pen -->
  <path
    d="M27 45l3-8 17-17 6 6-17 17-9 2z"
    fill="#fbbf24"
  />

  <path
    d="M47 20l3-3a2.8 2.8 0 0 1 4 0l2 2a2.8 2.8 0 0 1 0 4l-3 3z"
    fill="#fde68a"
  />

  <path
    d="M30 37l6 6"
    stroke="#ffffff"
    stroke-width="2"
  />

  <!-- Pen tip -->
  <path d="M27 45l2-6 4 4z" fill="#1e293b"/>
</svg>